<svg width="171" height="52" viewBox="0 0 171 52" fill="none" xmlns="http://www.w3.org/2000/svg">
<path d="M72.296 34.168C71.176 34.168 70.168 33.976 69.272 33.592C68.376 33.192 67.672 32.632 67.16 31.912C66.648 31.192 66.392 30.352 66.392 29.392H69.32C69.384 30.112 69.664 30.704 70.16 31.168C70.672 31.632 71.384 31.864 72.296 31.864C73.24 31.864 73.976 31.64 74.504 31.192C75.032 30.728 75.296 30.136 75.296 29.416C75.296 28.856 75.128 28.4 74.792 28.048C74.472 27.696 74.064 27.424 73.568 27.232C73.088 27.04 72.416 26.832 71.552 26.608C70.464 26.32 69.576 26.032 68.888 25.744C68.216 25.44 67.64 24.976 67.16 24.352C66.68 23.728 66.44 22.896 66.44 21.856C66.44 20.896 66.68 20.056 67.16 19.336C67.64 18.616 68.312 18.064 69.176 17.68C70.04 17.296 71.04 17.104 72.176 17.104C73.792 17.104 75.112 17.512 76.136 18.328C77.176 19.128 77.752 20.232 77.864 21.64H74.84C74.792 21.032 74.504 20.512 73.976 20.08C73.448 19.648 72.752 19.432 71.888 19.432C71.104 19.432 70.464 19.632 69.968 20.032C69.472 20.432 69.224 21.008 69.224 21.76C69.224 22.272 69.376 22.696 69.68 23.032C70 23.352 70.4 23.608 70.88 23.8C71.36 23.992 72.016 24.2 72.848 24.424C73.952 24.728 74.848 25.032 75.536 25.336C76.24 25.64 76.832 26.112 77.312 26.752C77.808 27.376 78.056 28.216 78.056 29.272C78.056 30.12 77.824 30.92 77.36 31.672C76.912 32.424 76.248 33.032 75.368 33.496C74.504 33.944 73.48 34.168 72.296 34.168ZM86.5164 27.4L92.6124 34H88.9164L84.0204 28.312V34H81.2844V16.24H84.0204V26.56L88.8204 20.776H92.6124L86.5164 27.4ZM106.477 20.776L98.3654 40.216H95.5334L98.2214 33.784L93.0134 20.776H96.0614L99.7814 30.856L103.645 20.776H106.477ZM122.918 17.32L116.654 34H113.486L107.198 17.32H110.126L115.07 31.192L120.038 17.32H122.918ZM124.294 27.328C124.294 26 124.566 24.824 125.11 23.8C125.67 22.776 126.422 21.984 127.366 21.424C128.326 20.848 129.382 20.56 130.534 20.56C131.574 20.56 132.478 20.768 133.246 21.184C134.03 21.584 134.654 22.088 135.118 22.696V20.776H137.878V34H135.118V32.032C134.654 32.656 134.022 33.176 133.222 33.592C132.422 34.008 131.51 34.216 130.486 34.216C129.35 34.216 128.31 33.928 127.366 33.352C126.422 32.76 125.67 31.944 125.11 30.904C124.566 29.848 124.294 28.656 124.294 27.328ZM135.118 27.376C135.118 26.464 134.926 25.672 134.542 25C134.174 24.328 133.686 23.816 133.078 23.464C132.47 23.112 131.814 22.936 131.11 22.936C130.406 22.936 129.75 23.112 129.142 23.464C128.534 23.8 128.038 24.304 127.654 24.976C127.286 25.632 127.102 26.416 127.102 27.328C127.102 28.24 127.286 29.04 127.654 29.728C128.038 30.416 128.534 30.944 129.142 31.312C129.766 31.664 130.422 31.84 131.11 31.84C131.814 31.84 132.47 31.664 133.078 31.312C133.686 30.96 134.174 30.448 134.542 29.776C134.926 29.088 135.118 28.288 135.118 27.376ZM153.448 20.776V34H150.712V32.44C150.28 32.984 149.712 33.416 149.008 33.736C148.32 34.04 147.584 34.192 146.8 34.192C145.76 34.192 144.824 33.976 143.992 33.544C143.176 33.112 142.528 32.472 142.048 31.624C141.584 30.776 141.352 29.752 141.352 28.552V20.776H144.064V28.144C144.064 29.328 144.36 30.24 144.952 30.88C145.544 31.504 146.352 31.816 147.376 31.816C148.4 31.816 149.208 31.504 149.8 30.88C150.408 30.24 150.712 29.328 150.712 28.144V20.776H153.448ZM159.794 16.24V34H157.058V16.24H159.794ZM166.578 23.008V30.328C166.578 30.824 166.69 31.184 166.914 31.408C167.154 31.616 167.554 31.72 168.114 31.72H169.794V34H167.634C166.402 34 165.458 33.712 164.802 33.136C164.146 32.56 163.818 31.624 163.818 30.328V23.008H162.258V20.776H163.818V17.488H166.578V20.776H169.794V23.008H166.578Z" fill="#FA7275"/>
<rect opacity="0.2" width="48" height="48" rx="24" fill="#FA7275"/>
<rect x="21" y="20" width="32" height="32" rx="16" fill="#FA7275"/>
</svg>
