<svg width="267" height="82" viewBox="0 0 267 82" fill="none" xmlns="http://www.w3.org/2000/svg">
<path d="M112.71 53.7349C110.964 53.7349 109.392 53.4356 107.996 52.8369C106.599 52.2133 105.501 51.3403 104.703 50.2178C103.905 49.0953 103.506 47.7858 103.506 46.2891H108.07C108.17 47.4116 108.607 48.3345 109.38 49.0579C110.178 49.7813 111.288 50.143 112.71 50.143C114.182 50.143 115.329 49.7938 116.152 49.0953C116.975 48.372 117.387 47.449 117.387 46.3265C117.387 45.4535 117.125 44.7426 116.601 44.1938C116.102 43.645 115.466 43.221 114.693 42.9217C113.945 42.6223 112.897 42.2981 111.55 41.9488C109.854 41.4999 108.469 41.0509 107.397 40.6019C106.349 40.1279 105.451 39.4046 104.703 38.4317C103.955 37.4589 103.58 36.1618 103.58 34.5404C103.58 33.0438 103.955 31.7342 104.703 30.6118C105.451 29.4893 106.499 28.6287 107.846 28.03C109.193 27.4314 110.752 27.1321 112.523 27.1321C115.042 27.1321 117.1 27.7681 118.697 29.0403C120.318 30.2875 121.216 32.0086 121.391 34.2037H116.676C116.601 33.2558 116.152 32.4451 115.329 31.7717C114.506 31.0982 113.421 30.7614 112.074 30.7614C110.852 30.7614 109.854 31.0732 109.081 31.6968C108.307 32.3204 107.921 33.2184 107.921 34.3908C107.921 35.189 108.158 35.85 108.632 36.3738C109.13 36.8727 109.754 37.2718 110.502 37.5712C111.251 37.8705 112.273 38.1948 113.571 38.544C115.292 39.0179 116.689 39.4919 117.761 39.9658C118.859 40.4397 119.782 41.1756 120.53 42.1733C121.303 43.1462 121.69 44.4557 121.69 46.102C121.69 47.4241 121.328 48.6713 120.605 49.8437C119.906 51.016 118.871 51.9639 117.499 52.6873C116.152 53.3857 114.556 53.7349 112.71 53.7349ZM134.88 43.1836L144.383 53.473H138.621L130.988 44.6054V53.473H126.723V25.7851H130.988V41.874L138.472 32.8567H144.383L134.88 43.1836ZM165.999 32.8567L153.352 63.1638H148.937L153.128 53.1363L145.009 32.8567H149.76L155.56 48.5715L161.584 32.8567H165.999ZM191.63 27.4688L181.865 53.473H176.926L167.123 27.4688H171.687L179.395 49.0953L187.14 27.4688H191.63ZM193.776 43.0713C193.776 41.001 194.2 39.1676 195.048 37.5712C195.921 35.9747 197.093 34.74 198.565 33.867C200.061 32.969 201.708 32.52 203.504 32.52C205.125 32.52 206.534 32.8443 207.732 33.4928C208.954 34.1164 209.927 34.9021 210.65 35.85V32.8567H214.953V53.473H210.65V50.4049C209.927 51.3777 208.942 52.1884 207.694 52.8369C206.447 53.4855 205.025 53.8098 203.429 53.8098C201.658 53.8098 200.037 53.3608 198.565 52.4628C197.093 51.5399 195.921 50.2677 195.048 48.6463C194.2 47 193.776 45.1417 193.776 43.0713ZM210.65 43.1462C210.65 41.7244 210.351 40.4896 209.752 39.442C209.179 38.3943 208.418 37.5961 207.47 37.0473C206.522 36.4986 205.499 36.2242 204.402 36.2242C203.304 36.2242 202.281 36.4986 201.334 37.0473C200.386 37.5712 199.612 38.3569 199.014 39.4045C198.44 40.4273 198.153 41.6495 198.153 43.0713C198.153 44.4931 198.44 45.7404 199.014 46.8129C199.612 47.8855 200.386 48.7087 201.334 49.2824C202.306 49.8312 203.329 50.1056 204.402 50.1056C205.499 50.1056 206.522 49.8312 207.47 49.2824C208.418 48.7336 209.179 47.9354 209.752 46.8878C210.351 45.8152 210.65 44.568 210.65 43.1462ZM239.226 32.8567V53.473H234.961V51.041C234.287 51.8891 233.402 52.5626 232.304 53.0614C231.232 53.5354 230.084 53.7724 228.862 53.7724C227.241 53.7724 225.781 53.4356 224.484 52.7621C223.212 52.0886 222.202 51.0909 221.454 49.7688C220.73 48.4468 220.368 46.8504 220.368 44.9796V32.8567H224.597V44.3435C224.597 46.1893 225.058 47.6112 225.981 48.6089C226.904 49.5817 228.164 50.0682 229.76 50.0682C231.356 50.0682 232.616 49.5817 233.539 48.6089C234.487 47.6112 234.961 46.1893 234.961 44.3435V32.8567H239.226ZM249.12 25.7851V53.473H244.854V25.7851H249.12ZM259.696 36.3364V47.7484C259.696 48.5216 259.871 49.0829 260.22 49.4321C260.594 49.7564 261.218 49.9185 262.091 49.9185H264.71V53.473H261.342C259.422 53.473 257.95 53.024 256.927 52.126C255.905 51.2281 255.393 49.7688 255.393 47.7484V36.3364H252.961V32.8567H255.393V27.7307H259.696V32.8567H264.71V36.3364H259.696Z" fill="white"/>
<rect opacity="0.2" width="74.8323" height="74.8323" rx="37.4161" fill="white"/>
<rect x="32.7393" y="31.1801" width="49.8882" height="49.8882" rx="24.9441" fill="white"/>
</svg>
